<?xml version="1.0" standalone="no"?>
<!DOCTYPE svg PUBLIC "-//W3C//DTD SVG 20010904//EN"
 "http://www.w3.org/TR/2001/REC-SVG-20010904/DTD/svg10.dtd">
<svg version="1.0" xmlns="http://www.w3.org/2000/svg"
 width="512.000000pt" height="512.000000pt" viewBox="0 0 512.000000 512.000000"
 preserveAspectRatio="xMidYMid meet">

<g transform="translate(0.000000,512.000000) scale(0.100000,-0.100000)"
fill="#000000" stroke="none">
<path d="M871 5109 c-48 -15 -104 -52 -139 -95 -67 -81 -62 110 -62 -2454 0
-2591 -6 -2376 69 -2462 21 -24 60 -54 87 -68 l49 -25 1685 0 1685 0 49 25
c27 14 66 44 87 68 75 85 69 -68 68 1916 0 1338 -3 1788 -12 1811 -32 81 12
39 -1040 1007 -226 208 -277 250 -323 267 -54 21 -69 21 -1112 20 -648 0
-1070 -5 -1091 -10z m1821 -846 c3 -494 4 -509 25 -561 43 -106 136 -195 237
-229 45 -15 116 -17 599 -21 l547 -3 0 -1550 0 -1549 -1540 0 -1540 0 0 2210
0 2210 834 0 835 0 3 -507z m761 -78 l396 -370 -396 -3 c-311 -2 -398 1 -405
10 -11 18 -10 741 1 736 4 -1 186 -169 404 -373z"/>
<path d="M1330 1935 l0 -1015 1245 0 1245 0 0 1015 0 1015 -1245 0 -1245 0 0
-1015z m2140 0 l0 -665 -895 0 -895 0 0 665 0 665 895 0 895 0 0 -665z"/>
</g>
</svg>
