<?xml version="1.0" standalone="no"?>
<!DOCTYPE svg PUBLIC "-//W3C//DTD SVG 20010904//EN"
 "http://www.w3.org/TR/2001/REC-SVG-20010904/DTD/svg10.dtd">
<svg version="1.0" xmlns="http://www.w3.org/2000/svg"
 width="980.000000pt" height="912.000000pt" viewBox="0 0 980.000000 912.000000"
 preserveAspectRatio="xMidYMid meet">

<g transform="translate(0.000000,912.000000) scale(0.100000,-0.100000)"
fill="#000000" stroke="none">
<path d="M51 9058 l-51 -63 1 -3275 c1 -1801 4 -3501 8 -3777 l6 -501 24 -26
c58 -62 49 -61 586 -64 270 -2 1170 1 2000 7 l1510 11 33 37 c69 78 67 157 -5
234 l-46 49 -1043 0 -1044 0 0 3540 0 3540 2869 0 2869 0 5 -1727 c3 -1218 8
-1753 16 -1813 13 -94 32 -130 77 -142 16 -4 378 -11 805 -15 l776 -6 7 -96
c3 -53 6 -295 6 -539 l0 -443 33 -30 c99 -93 190 -91 270 6 l37 44 0 2493 0
2493 -51 63 -51 62 -4798 0 -4798 0 -51 -62z m1629 -1043 l0 -755 -670 0 -670
0 0 755 0 755 670 0 670 0 0 -755z m7780 0 l0 -755 -670 0 -670 0 0 755 0 755
670 0 670 0 0 -755z m-7780 -1860 l0 -755 -667 2 -668 3 -3 753 -2 752 670 0
670 0 0 -755z m7778 3 l-3 -753 -667 -3 -668 -2 0 755 0 755 670 0 670 0 -2
-752z m-7778 -1853 l0 -755 -670 0 -670 0 0 748 c0 412 3 752 7 755 3 4 305 7
670 7 l663 0 0 -755z m0 -1860 l0 -755 -670 0 -670 0 0 755 0 755 670 0 670 0
0 -755z"/>
<path d="M4190 6581 c-55 -17 -88 -41 -99 -73 -26 -72 -30 -278 -31 -1379 l0
-1146 44 -41 c54 -49 74 -56 128 -42 94 25 267 128 1008 600 927 591 965 616
993 670 36 70 -1 160 -93 226 -44 31 -1014 647 -1385 879 -259 162 -517 315
-530 314 -5 0 -21 -4 -35 -8z m362 -578 c495 -301 1138 -720 1177 -767 15 -18
5 -24 -465 -324 -547 -348 -865 -544 -872 -537 -4 3 -6 369 -7 813 0 712 5
902 20 902 3 0 69 -39 147 -87z"/>
<path d="M4900 2025 l0 -2025 2028 2 2027 3 3 2016 2 2016 -76 7 c-43 3 -956
6 -2031 6 l-1953 0 0 -2025z m3710 10 l0 -1685 -755 0 -755 0 0 1057 0 1058
360 -360 360 -360 120 120 120 120 -565 565 -565 565 -570 -570 -570 -570 120
-120 120 -120 365 365 365 365 0 -1058 0 -1057 -760 0 -760 0 0 1678 c0 923 3
1682 7 1685 3 4 762 7 1685 7 l1678 0 0 -1685z"/>
</g>
</svg>
